<svg
      width="184"
      height="90"
      viewBox="0 0 184 90"
      fill="none"
      xmlns="http://www.w3.org/2000/svg"
    >
      <path
        d="M34.426 70.9794C33.7241 71.2478 32.6524 71.3045 31.7467 71.0777C30.9618 70.8812 30.358 70.5032 29.8448 70.0609C28.2901 68.7228 26.8184 67.2449 25.5769 65.6233C25.1618 65.079 25.2184 63.7258 25.6146 63.0869C27.2146 60.509 27.3052 58.5775 25.5958 56.8463C23.9203 55.1529 21.8335 55.1038 19.3731 56.782C18.275 57.5342 17.3694 57.4171 16.4826 56.4834C15.3543 55.3003 14.192 54.1512 13.0713 52.9643C10.6788 50.4355 10.709 47.7896 13.2071 45.3364C20.7618 37.9089 28.3354 30.504 35.9014 23.0878C36.8524 22.1541 37.7807 21.1978 38.7656 20.302C41.0599 18.2192 43.8713 18.2684 46.0562 20.4343C47.2599 21.6287 48.3996 22.8837 49.5958 24.0857C50.592 25.0874 50.5316 26.055 49.7165 27.1399C48.0562 29.3587 48.0939 31.5019 49.758 33.184C51.3279 34.7715 53.6562 34.9605 55.6977 33.4788C57.0599 32.4885 58.0977 32.6699 59.1694 33.8455C60.1882 34.9643 61.2826 36.0114 62.3128 37.1189C64.6901 39.6779 64.6486 42.2974 62.1354 44.7694C56.3543 50.4582 50.5429 56.1168 44.743 61.7867C42.0599 64.4099 39.426 67.0899 36.6486 69.6111C36.0222 70.1781 35.275 70.6506 34.4335 70.9757M22.3882 51.8303C28.1882 51.7963 32.1052 57.3641 30.0562 62.6485C29.6411 63.722 29.6486 64.425 30.1128 65.0752C30.2675 65.2906 31.7694 66.7951 31.8599 66.8782C32.6147 67.5699 33.7279 67.3772 34.5731 66.5456C42.943 58.3167 51.5505 50.0349 59.9241 41.806C60.2864 41.4507 60.3618 41.0198 60.1392 40.6796C59.3543 39.4813 58.4901 38.5174 57.4297 37.5649C57.2826 37.4326 57.0863 37.2663 56.7543 37.3381C56.4184 37.4061 55.9996 37.6518 55.6448 37.7955C52.5543 39.0618 49.4939 38.2717 47.1128 35.811C44.7618 33.3805 44.0373 30.4511 45.3543 27.3024C45.7543 26.3461 45.758 25.6695 45.3467 25.0647C45.1882 24.8303 43.2713 22.9366 43.1392 22.8345C42.4713 22.3242 41.8335 22.4754 41.1052 23.2125C39.1467 25.1894 37.1279 27.1096 35.1392 29.0563C28.7807 35.278 21.9128 41.8476 15.5845 48.0996C15.1316 48.5494 15.0486 49.1995 15.2335 49.4792C15.992 50.6208 16.9203 51.7169 18.0071 52.5372C18.1807 52.6695 18.9392 53.0475 19.4826 52.6619C20.1845 52.163 21.3354 51.8795 22.3882 51.8341"
        fill="#00DBDB"
      />
      <path
        d="M36.7281 39.8782H35.8149C35.2602 39.8782 34.8413 40.2977 34.8413 40.8534V46.2247L29.8111 40.2335L29.7621 40.1806C29.513 39.9349 29.2526 39.882 29.0791 39.882H27.064C26.5168 39.882 26.1055 40.3015 26.1055 40.8572V49.7665C26.1055 50.3145 26.5168 50.7266 27.064 50.7266H27.9772C28.5243 50.7266 28.9357 50.3145 28.9357 49.7665V43.5976L34.6602 50.3372C34.8262 50.5791 35.1055 50.7266 35.4225 50.7266H36.4526L36.4941 50.7795V50.7266H36.7243C37.2715 50.7266 37.6828 50.3145 37.6828 49.7665V40.8572C37.6828 40.3015 37.2715 39.882 36.7243 39.882"
        fill="white"
      />
      <path
        d="M50.5621 42.0063C50.396 41.5035 50.1545 41.0877 49.8262 40.7589C49.4941 40.4414 49.0564 40.207 48.5281 40.0634C48.0639 39.9386 47.5205 39.8744 46.9092 39.8744H40.8413C40.2941 39.8744 39.8828 40.294 39.8828 40.8458V49.7551C39.8828 50.3032 40.2941 50.7152 40.8413 50.7152H41.8111C42.3658 50.7152 42.7847 50.3032 42.7847 49.7551V46.8824H46.913C50.2904 46.8824 50.796 44.8563 50.796 43.6468C50.796 43.0193 50.7168 42.4674 50.5658 42.0025M42.7847 42.7358H46.8677C47.1319 42.7358 47.3507 42.7509 47.5205 42.7774C47.679 42.8038 47.7734 42.8341 47.8262 42.8567C47.8413 42.8643 47.8639 42.8794 47.8677 42.887C47.8828 42.9134 47.9092 42.989 47.9092 43.1554V43.6052C47.9092 43.7299 47.8904 43.832 47.8602 43.9038L47.8489 43.9076C47.7885 43.934 47.5394 44.0247 46.8677 44.0247H42.7847V42.7358Z"
        fill="white"
      />
      <path
        d="M81.2833 44.9773H82.9512C83.3738 44.9773 83.6795 44.6712 83.6795 44.2478V32.8513C83.6795 32.4166 83.3738 32.1029 82.9512 32.1029H81.7851C81.3512 32.1029 81.038 32.4166 81.038 32.8513V41.084L73.7323 32.3751L73.6984 32.3373C73.5399 32.1785 73.3625 32.0991 73.1701 32.0991H70.5965C70.1738 32.0991 69.8682 32.4129 69.8682 32.8475V44.244C69.8682 44.6674 70.1738 44.9735 70.5965 44.9735H71.7625C72.1851 44.9735 72.4908 44.6674 72.4908 44.244V35.0021L80.7097 44.6787C80.8116 44.8375 81.0002 44.9735 81.2833 44.9735"
        fill="white"
      />
      <path
        d="M100.37 42.7509L100.382 42.732C100.578 42.3011 100.717 41.7568 100.797 41.1256C100.872 40.5246 100.914 39.8177 100.914 39.0315C100.914 38.0714 100.887 37.2512 100.838 36.5934C100.785 35.9168 100.721 35.4066 100.642 35.0323L100.634 35.0021C100.476 34.4313 100.231 33.9437 99.9023 33.5468C99.5702 33.1462 99.1589 32.84 98.691 32.6321C97.8193 32.2352 96.4684 32.0424 94.5665 32.0424H92.7702C91.1174 32.0424 89.9401 32.1596 89.1816 32.394L89.0759 32.4242C88.5627 32.5943 88.1212 32.8438 87.7627 33.1575C87.408 33.4712 87.1174 33.8492 86.891 34.299C86.691 34.7299 86.5552 35.2554 86.4797 35.9017C86.4118 36.5027 86.374 37.2096 86.374 38.0071C86.374 38.971 86.3967 39.7875 86.442 40.4376C86.4872 41.1256 86.5627 41.6548 86.6759 42.063C87.008 43.1894 87.6684 43.9794 88.6231 44.399C89.4344 44.7845 90.7929 44.9735 92.774 44.9735H94.5703C95.4042 44.9735 96.1212 44.9395 96.7061 44.879C97.3174 44.811 97.8042 44.7203 98.2004 44.5956L98.5967 44.4557V44.4368C98.9287 44.2969 99.2306 44.1117 99.4948 43.8811C99.857 43.5674 100.155 43.1856 100.37 42.7509ZM98.3023 38.0071V39.0277C98.3023 39.6325 98.2797 40.1617 98.2306 40.6002C98.1778 41.0802 98.0835 41.341 98.0118 41.4771L97.9853 41.5414C97.9136 41.7379 97.7514 42.0139 97.1853 42.1386C96.8872 42.2142 96.1891 42.3049 94.5476 42.3049H92.7702C91.1136 42.3049 90.4118 42.2142 90.0985 42.1348C89.6759 42.0365 89.4118 41.84 89.2646 41.5149C89.125 41.1898 88.9589 40.4981 88.9589 39.0277V38.0071C88.9589 36.5368 89.125 35.845 89.2684 35.5124C89.408 35.176 89.6646 34.9756 90.0872 34.8774C90.3967 34.8018 91.1099 34.7073 92.7665 34.7073H94.5438C96.2004 34.7073 96.9023 34.798 97.2193 34.8811C97.7514 35.0021 97.9023 35.2629 97.9778 35.4784L98.0118 35.5578C98.0835 35.6938 98.1778 35.9546 98.2268 36.4347C98.2721 36.8732 98.2985 37.4024 98.2985 38.0071"
        fill="white"
      />
      <path
        d="M107.679 44.9773H108.883C109.305 44.9773 109.611 44.6712 109.611 44.2478V35.4481L114.962 44.8261L115.113 44.9017C115.215 44.9546 115.324 44.9811 115.438 44.9811H116.234C116.502 44.9811 116.668 44.8715 116.762 44.777L116.815 44.7241L122.196 35.4028V44.2478C122.196 44.6712 122.502 44.9773 122.924 44.9773H124.109C124.453 44.9773 124.804 44.7279 124.804 44.2478V32.8513C124.804 32.3599 124.456 32.1029 124.109 32.1029H121.589C121.321 32.1029 121.155 32.2125 121.06 32.3032L121.007 32.3562L115.868 41.152L110.834 32.2579L110.675 32.1823C110.573 32.1331 110.46 32.1067 110.336 32.1067H107.668C107.245 32.1067 106.939 32.4204 106.939 32.8551V44.2516C106.939 44.6749 107.245 44.9811 107.668 44.9811"
        fill="white"
      />
      <path
        d="M138.921 44.244V43.0571C138.921 42.6338 138.623 42.3276 138.212 42.3276H130.215V39.7043H137.932C138.344 39.7043 138.645 39.3906 138.645 38.9559V37.7879C138.645 37.3532 138.347 37.0395 137.932 37.0395H130.215V34.7715H138.212C138.623 34.7715 138.921 34.4578 138.921 34.0231V32.8551C138.921 32.4204 138.623 32.1067 138.212 32.1067H128.317C127.895 32.1067 127.589 32.4204 127.589 32.8551V44.2478C127.589 44.6712 127.895 44.9773 128.317 44.9773H138.212C138.623 44.9773 138.921 44.6712 138.921 44.2478"
        fill="white"
      />
      <path
        d="M156.528 44.244V43.0571C156.528 42.6338 156.222 42.3276 155.8 42.3276H148.192V32.8513C148.192 32.4166 147.886 32.1029 147.464 32.1029H146.298C145.875 32.1029 145.569 32.4166 145.569 32.8513V44.244C145.569 44.6674 145.875 44.9735 146.298 44.9735H155.803C156.226 44.9735 156.532 44.6674 156.532 44.244"
        fill="white"
      />
      <path
        d="M172.626 43.9038C172.603 43.8585 172.577 43.8169 172.547 43.7829L166.77 32.4469C166.743 32.3902 166.705 32.341 166.66 32.2995L166.634 32.273C166.46 32.1029 166.249 32.1029 166.177 32.1029H164.381C164.185 32.1029 164.003 32.1747 163.875 32.3032C163.834 32.3448 163.796 32.394 163.77 32.4469L158.03 43.7829C157.917 43.9076 157.853 44.0664 157.853 44.244C157.853 44.6674 158.158 44.9735 158.581 44.9735H159.97C160.237 44.9735 160.464 44.7846 160.52 44.5351L161.69 42.2104H168.8L169.977 44.5237C169.977 44.5237 169.985 44.5502 169.992 44.5615C170.056 44.7997 170.275 44.9735 170.536 44.9735H172C172.411 44.9735 172.709 44.6674 172.709 44.2251C172.709 44.1155 172.683 44.0059 172.634 43.9M167.456 39.6136H163.045L165.271 35.2629L167.456 39.6136Z"
        fill="white"
      />
      <path
        d="M81.7473 47.6308C81.385 47.2831 80.8944 47.0223 80.2982 46.8635C79.7473 46.7161 79.0907 46.6405 78.3548 46.6405H70.5926C70.1699 46.6405 69.8643 46.9542 69.8643 47.3889V58.7854C69.8643 59.2088 70.1699 59.5149 70.5926 59.5149H71.8341C72.268 59.5149 72.5812 59.2088 72.5812 58.7854V54.6161H78.3548C82.0492 54.6161 82.8265 52.6355 82.8265 50.9723C82.8265 50.2239 82.736 49.5699 82.5586 49.0219C82.3699 48.4511 82.102 47.9862 81.7473 47.6308ZM80.1284 50.341V50.9156C80.1284 51.15 80.0907 51.3503 80.0152 51.509C79.9775 51.5922 79.9209 51.6565 79.8492 51.7132L79.7548 51.7547C79.5586 51.8417 79.1511 51.9475 78.2982 51.9475H72.5812V49.3091H78.2982C78.6605 49.3091 78.9699 49.328 79.2114 49.3658C79.4303 49.3999 79.6114 49.449 79.7322 49.5095C79.8718 49.5813 79.9624 49.6644 80.019 49.7778C80.0907 49.9215 80.1246 50.1105 80.1246 50.341"
        fill="white"
      />
      <path
        d="M86.2683 46.6405H85.3588C85.0041 46.6405 84.6494 46.8975 84.6494 47.3889V58.7854C84.6494 59.2088 84.9475 59.5149 85.3588 59.5149H86.2683C86.6117 59.5149 86.9588 59.2617 86.9588 58.7854V47.3889C86.9588 46.8975 86.6117 46.6405 86.2683 46.6405Z"
        fill="white"
      />
      <path
        d="M100.291 46.6405H90.3963C89.9736 46.6405 89.668 46.9542 89.668 47.3889V58.7854C89.668 59.2088 89.9736 59.5149 90.3963 59.5149H100.291C100.702 59.5149 101 59.2088 101 58.7854V57.5985C101 57.1752 100.702 56.869 100.291 56.869H92.2944V54.2457H100.011C100.423 54.2457 100.721 53.932 100.721 53.4973V52.3293C100.721 51.8946 100.423 51.5809 100.011 51.5809H92.2944V49.3129H100.291C100.702 49.3129 101 48.9992 101 48.5645V47.3965C101 46.9618 100.702 46.6481 100.291 46.6481"
        fill="white"
      />
      <path
        d="M116.804 53.3952C116.619 53.0172 116.389 52.7035 116.121 52.4578C116.234 52.2915 116.329 52.1025 116.404 51.8946C116.563 51.4561 116.642 50.9345 116.642 50.341C116.642 48.6514 115.861 46.6405 112.132 46.6405H103.906C103.483 46.6405 103.178 46.9542 103.178 47.3889V58.7854C103.178 59.2088 103.483 59.5149 103.906 59.5149H105.091C105.514 59.5149 105.819 59.2088 105.819 58.7854V54.2457H112.778C113.204 54.2457 113.563 54.2835 113.838 54.3629C114.049 54.4234 114.204 54.5103 114.317 54.6275C114.393 54.7447 114.461 54.9034 114.514 55.1C114.574 55.3306 114.604 55.6292 114.604 55.9845C114.604 56.0941 114.597 56.2604 114.585 56.4721C114.574 56.6913 114.555 56.9597 114.529 57.2885C114.491 57.9652 114.472 58.4528 114.472 58.7854C114.472 59.2088 114.778 59.5149 115.2 59.5149H116.461C116.804 59.5149 117.155 59.2655 117.155 58.7854V55.4439C117.155 55.0735 117.132 54.7182 117.083 54.3818C117.031 54.0189 116.936 53.6863 116.8 53.3952M114.008 50.4129C114.008 50.7644 114.008 51.5015 112.366 51.5015H105.815V49.3809H112.442C114.012 49.3809 114.012 50.0765 114.012 50.4129"
        fill="white"
      />
      <path
        d="M133.695 49.8534L133.687 49.8156C133.412 48.693 132.789 47.8652 131.834 47.3587C130.951 46.8749 129.695 46.6405 127.989 46.6405H120.54C120.117 46.6405 119.812 46.9542 119.812 47.3889V58.7854C119.812 59.2088 120.117 59.5149 120.54 59.5149H128.321C129.419 59.5149 130.347 59.4091 131.087 59.1974C131.879 58.9706 132.483 58.6266 132.891 58.1768C133.279 57.7421 133.555 57.1222 133.717 56.3247C133.864 55.5914 133.94 54.6615 133.94 53.5691C133.94 52.6922 133.913 51.94 133.864 51.3314C133.812 50.7153 133.755 50.2314 133.691 49.8534M131.332 52.6014V53.5653C131.332 54.1437 131.321 54.6464 131.295 55.0546C131.268 55.512 131.215 55.7388 131.178 55.8484L131.159 55.9127C131.053 56.3814 130.834 56.5137 130.649 56.5779L130.589 56.6044C130.389 56.7027 129.849 56.8652 128.445 56.8652H122.43V49.3054H128.147C129.978 49.3054 130.596 49.6569 130.8 49.8572C130.996 50.0613 131.325 50.685 131.325 52.6014"
        fill="white"
      />
      <path
        d="M150.808 49.5737L150.8 49.5435C150.642 48.9727 150.397 48.4813 150.068 48.0882C149.736 47.6875 149.329 47.3814 148.857 47.1735C147.985 46.7766 146.634 46.5838 144.733 46.5838H142.936C141.283 46.5838 140.106 46.701 139.348 46.9353L139.242 46.9656C138.729 47.1357 138.283 47.3851 137.929 47.6989C137.574 48.0126 137.283 48.3906 137.057 48.8404C136.861 49.2638 136.721 49.8043 136.646 50.4431C136.578 51.0441 136.54 51.751 136.54 52.5485C136.54 53.5124 136.563 54.3289 136.604 54.979C136.649 55.667 136.725 56.1961 136.838 56.6044C137.17 57.7308 137.831 58.5208 138.785 58.9404C139.597 59.3259 140.955 59.5149 142.936 59.5149H144.733C145.566 59.5149 146.287 59.4809 146.868 59.4166C147.468 59.3524 147.97 59.2579 148.363 59.1369L148.759 58.9971V58.9782C149.091 58.8383 149.393 58.6531 149.657 58.4225C150.019 58.1088 150.317 57.727 150.532 57.2923L150.544 57.2734C150.74 56.8387 150.88 56.2982 150.959 55.667C151.034 55.066 151.076 54.3629 151.076 53.5729C151.076 52.6128 151.049 51.7925 151 51.1348C150.948 50.4582 150.883 49.9479 150.804 49.5775M148.468 52.5523V53.5729C148.468 54.1777 148.446 54.7069 148.397 55.1453C148.344 55.6254 148.249 55.8862 148.182 56.0223L148.151 56.0865C148.08 56.2831 147.917 56.559 147.351 56.6838C147.053 56.7594 146.355 56.8501 144.714 56.8501H142.936C141.28 56.8501 140.578 56.7594 140.265 56.68C139.846 56.5855 139.578 56.3851 139.434 56.0601C139.295 55.735 139.129 55.0433 139.129 53.5729V52.5523C139.129 51.0819 139.295 50.3902 139.438 50.0575C139.578 49.7211 139.834 49.5208 140.257 49.4225C140.566 49.3469 141.28 49.2524 142.936 49.2524H144.714C146.37 49.2524 147.072 49.3431 147.389 49.4263C147.921 49.5473 148.072 49.8081 148.148 50.0235L148.182 50.1029C148.253 50.239 148.348 50.4998 148.397 50.9799C148.442 51.4183 148.468 51.9475 148.468 52.5523Z"
        fill="white"
      />
    </svg>