<svg width="86" height="72" viewBox="0 0 86 72" fill="none" xmlns="http://www.w3.org/2000/svg">
<path d="M82.86 71.9813H3.14996C1.73996 71.9813 0.579956 70.8312 0.579956 69.4113V26.0713C0.579956 24.6613 1.72996 24.5013 3.14996 24.5013H82.86C83.57 24.5013 84.21 23.7913 84.67 24.2513C85.14 24.7113 85.42 25.3612 85.42 26.0612V69.4012C85.42 70.8112 84.27 71.9712 82.85 71.9712L82.86 71.9813Z" fill="url(#paint0_linear_111_30817)"/>
<path d="M84 23.7912L43.54 0.161238C43.22 -0.0287622 42.83 -0.0287622 42.52 0.161238L1.98998 23.7912C1.58998 24.0212 0.909985 25.0512 1.02999 25.5012C1.14999 25.9512 1.54998 26.2612 2.00998 26.2612H84.06C84.52 26.2612 84.92 25.9512 85.04 25.5012C85.16 25.0512 84.39 24.0312 84 23.7912Z" fill="url(#paint1_linear_111_30817)"/>
<path d="M83.9999 23.7912L42.9999 47.7412L1.98994 23.7912C1.15994 24.2112 0.569946 25.0712 0.569946 26.0712V69.4112C0.569946 70.8212 1.71995 71.9812 3.13995 71.9812H82.8499C84.2599 71.9812 85.4199 70.8312 85.4199 69.4112V26.0712C85.4199 25.3612 85.1299 24.7212 84.6699 24.2612C84.4799 24.0712 84.2499 23.9212 83.9999 23.7912Z" fill="url(#paint2_linear_111_30817)"/>
<path d="M56.12 35.3412C56.12 42.5712 50.26 48.4212 43.04 48.4212C35.82 48.4212 29.96 42.5612 29.96 35.3412C29.96 28.1212 35.82 22.2612 43.04 22.2612C50.26 22.2612 56.12 28.1212 56.12 35.3412Z" fill="#00DBDB"/>
<path d="M40.7499 41.5212C40.7499 41.5212 40.6999 41.5212 40.6699 41.5212C40.1899 41.5012 39.7399 41.2612 39.4599 40.8712L35.9299 35.9912C35.4199 35.2812 35.5699 34.2912 36.2899 33.7712C36.9999 33.2612 37.9899 33.4112 38.5099 34.1312L40.8799 37.4012L47.6899 29.7112C48.2699 29.0512 49.2699 28.9912 49.9299 29.5712C50.5899 30.1512 50.6499 31.1512 50.0699 31.8112L41.9499 40.9912C41.6499 41.3312 41.2099 41.5312 40.7599 41.5312L40.7499 41.5212Z" fill="url(#paint3_linear_111_30817)"/>
<g style="mix-blend-mode:multiply" opacity="0.35">
<path d="M28.6499 38.1612L42.9999 46.6712L57.4299 38.1612L56.9199 41.5212L43.0399 48.4212L28.9999 40.5012L28.6499 38.1612Z" fill="#00878E"/>
</g>
<path d="M1.99996 23.7912C1.16996 24.2112 0.579956 25.0712 0.579956 26.0712V69.4112C0.579956 70.0912 0.849961 70.7012 1.27996 71.1612L43 47.7412L1.98996 23.7912H1.99996Z" fill="url(#paint4_linear_111_30817)"/>
<path d="M84.0099 23.7912C84.8399 24.2112 85.4299 25.0712 85.4299 26.0712V69.4112C85.4299 70.0912 85.1599 70.7012 84.7299 71.1612L43.0099 47.7412L84.0199 23.7912H84.0099Z" fill="url(#paint5_linear_111_30817)"/>
<path d="M42.9999 47.7412L1.28992 71.1612H84.1599L42.9999 47.7412Z" fill="url(#paint6_linear_111_30817)"/>
<defs>
<linearGradient id="paint0_linear_111_30817" x1="43" y1="71.9813" x2="43" y2="24.1013" gradientUnits="userSpaceOnUse">
<stop offset="0.13" stop-color="#32738C"/>
<stop offset="0.52" stop-color="#D6E8F5"/>
<stop offset="0.74" stop-color="#D9EAF6"/>
<stop offset="0.93" stop-color="#E3F1FB"/>
<stop offset="1" stop-color="#EAF6FE"/>
</linearGradient>
<linearGradient id="paint1_linear_111_30817" x1="43.04" y1="26.2512" x2="43.04" y2="0.0212393" gradientUnits="userSpaceOnUse">
<stop stop-color="#C4E0F1"/>
<stop offset="0.11" stop-color="#D6E8F5"/>
<stop offset="0.13" stop-color="#D9EAF5"/>
<stop offset="0.22" stop-color="#EAF3FA"/>
<stop offset="0.35" stop-color="#F6FAFC"/>
<stop offset="0.52" stop-color="#FDFDFE"/>
<stop offset="1" stop-color="white"/>
</linearGradient>
<linearGradient id="paint2_linear_111_30817" x1="42.9999" y1="71.9812" x2="42.9999" y2="23.7912" gradientUnits="userSpaceOnUse">
<stop stop-color="white"/>
<stop offset="0.37" stop-color="#FCFDFE"/>
<stop offset="0.63" stop-color="#F2F8FC"/>
<stop offset="0.87" stop-color="#E2EFF8"/>
<stop offset="1" stop-color="#D6E8F5"/>
</linearGradient>
<linearGradient id="paint3_linear_111_30817" x1="35.6299" y1="35.3412" x2="50.4499" y2="35.3412" gradientUnits="userSpaceOnUse">
<stop stop-color="#C4E0F1"/>
<stop offset="0.11" stop-color="#D6E8F5"/>
<stop offset="0.13" stop-color="#D9EAF5"/>
<stop offset="0.22" stop-color="#EAF3FA"/>
<stop offset="0.35" stop-color="#F6FAFC"/>
<stop offset="0.52" stop-color="#FDFDFE"/>
<stop offset="1" stop-color="white"/>
</linearGradient>
<linearGradient id="paint4_linear_111_30817" x1="21.79" y1="71.1612" x2="21.79" y2="-23.5688" gradientUnits="userSpaceOnUse">
<stop stop-color="#D6E8F5"/>
<stop offset="0.02" stop-color="#D9EAF5"/>
<stop offset="0.13" stop-color="#EAF3FA"/>
<stop offset="0.27" stop-color="#F6FAFC"/>
<stop offset="0.46" stop-color="#FDFDFE"/>
<stop offset="1" stop-color="white"/>
</linearGradient>
<linearGradient id="paint5_linear_111_30817" x1="64.2099" y1="-20.9888" x2="64.2099" y2="-20.9888" gradientUnits="userSpaceOnUse">
<stop stop-color="#D6E8F5"/>
<stop offset="0.02" stop-color="#D9EAF5"/>
<stop offset="0.13" stop-color="#EAF3FA"/>
<stop offset="0.27" stop-color="#F6FAFC"/>
<stop offset="0.46" stop-color="#FDFDFE"/>
<stop offset="1" stop-color="white"/>
</linearGradient>
<linearGradient id="paint6_linear_111_30817" x1="42.7199" y1="71.1612" x2="42.7199" y2="47.7412" gradientUnits="userSpaceOnUse">
<stop stop-color="white" stop-opacity="0"/>
<stop offset="0.03" stop-color="#FDFEFE" stop-opacity="0.04"/>
<stop offset="0.31" stop-color="#ECF4FA" stop-opacity="0.45"/>
<stop offset="0.54" stop-color="#E0EDF7" stop-opacity="0.74"/>
<stop offset="0.71" stop-color="#D8E9F5" stop-opacity="0.93"/>
<stop offset="0.79" stop-color="#D6E8F5"/>
<stop offset="0.98" stop-color="#D6E8F5"/>
</linearGradient>
</defs>
</svg>
